<svg width="24" height="25" viewBox="0 0 24 25" fill="none" xmlns="http://www.w3.org/2000/svg">
<g clip-path="url(#clip0_3302_4718)">
<mask id="mask0_3302_4718" style="mask-type:luminance" maskUnits="userSpaceOnUse" x="0" y="0" width="24" height="25">
<path fill-rule="evenodd" clip-rule="evenodd" d="M12 24.5C18.6274 24.5 24 19.1274 24 12.5C24 5.87258 18.6274 0.5 12 0.5C5.37258 0.5 0 5.87258 0 12.5C0 19.1274 5.37258 24.5 12 24.5Z" fill="white"/>
</mask>
<g mask="url(#mask0_3302_4718)">
<path fill-rule="evenodd" clip-rule="evenodd" d="M12 24.5C18.6274 24.5 24 19.1274 24 12.5C24 5.87258 18.6274 0.5 12 0.5C5.37258 0.5 0 5.87258 0 12.5C0 19.1274 5.37258 24.5 12 24.5Z" fill="#0069FF"/>
<g clip-path="url(#clip1_3302_4718)">
<g clip-path="url(#clip2_3302_4718)">
<path d="M9.90511 17.2364C9.90511 17.2364 8.10604 18.3706 9.08378 20.0915C10.0615 21.8124 16.8278 21.343 13.3468 17.2364C10.4715 13.844 9.90511 17.2364 9.90511 17.2364Z" fill="#863F38"/>
<path d="M16.4898 12.8559C16.4898 12.8559 15.7075 13.7946 15.8641 14.7332C16.0891 16.0841 14.0258 17.8622 11.9138 17.2755C9.8018 16.6888 12.0702 12.7386 12.0702 12.7386L16.4898 12.8559Z" fill="#863F38"/>
<path d="M6.61987 12.8559C6.61987 12.8559 7.40213 13.7946 7.24561 14.7332C7.02057 16.0841 9.08387 17.8622 11.1959 17.2755C13.3079 16.6888 11.0395 12.7386 11.0395 12.7386L6.61987 12.8559Z" fill="#863F38"/>
<path d="M11.9875 15.8105C12.9602 15.8235 13.9295 15.6507 14.8035 15.2028C15.2659 14.9658 15.583 14.6407 15.8571 14.2747C15.9455 13.5117 16.4898 12.8559 16.4898 12.8559L12.0702 12.7386C12.0702 12.7386 11.1084 14.4144 11.0211 15.7452C11.3448 15.783 11.6679 15.8063 11.9875 15.8105Z" fill="#AA534F"/>
<path d="M7.26309 14.5695C8.70465 15.3352 10.3877 15.7891 11.9875 15.8105C12.0224 15.811 12.0571 15.8094 12.0918 15.8094C12.0323 14.4689 11.0394 12.7386 11.0394 12.7386L6.61987 12.856C6.61987 12.856 7.31296 13.6885 7.26309 14.5695Z" fill="#AA534F"/>
<path d="M13.9184 19.1934C12.9232 18.6507 13.1946 16.0265 13.1946 16.0265L11.7041 16.1226V16.0268L11.5446 16.0747L11.385 16.0268V16.1226L9.89456 16.0265C9.89456 16.0265 10.1661 18.6507 9.17085 19.1934C8.17562 19.7363 2.05986 20.0077 2.69323 26.0695H11.385H11.7041H20.3959C21.0293 20.0077 14.9136 19.7363 13.9184 19.1934Z" fill="#FFAE9E"/>
<path d="M9.68567 18.5165C10.8762 18.3391 12.066 18.1559 13.2549 17.9672C13.0876 17.0625 13.1946 16.0264 13.1946 16.0264L11.7042 16.1225V16.0268L11.5446 16.0747L11.3851 16.0268V16.1225L9.89464 16.0264C9.89464 16.0264 10.0517 17.5511 9.68567 18.5165Z" fill="#E18980"/>
<path d="M15.9426 19.6603C15.0714 20.4497 13.7858 20.9967 12.3181 21.138L11.5276 23.984L11.1093 21.1605C9.51896 21.0685 8.11823 20.5023 7.18895 19.6603C5.12224 20.3225 2.10326 21.7582 2.5537 26.0695H11.4033H11.7282H20.5779C21.0283 21.7582 18.0093 20.3225 15.9426 19.6603Z" fill="#438685"/>
<path d="M11.2165 21.8844L11.1092 21.1605C9.5189 21.0685 8.11818 20.5022 7.1889 19.6602C6.83783 19.7728 6.46589 19.9084 6.09265 20.0759C6.82563 21.0721 8.82053 21.8053 11.2165 21.8844Z" fill="#5CAAA6"/>
<path d="M17.1604 20.131C16.7466 19.9373 16.3319 19.785 15.9426 19.6603C15.0714 20.4497 13.7858 20.9967 12.3181 21.138L12.111 21.8833C14.4479 21.8001 16.3991 21.0946 17.1604 20.131Z" fill="#5CAAA6"/>
<path d="M11.3483 24.6713C11.3483 24.8529 11.4954 25 11.6769 25C11.8584 25 12.0056 24.8529 12.0056 24.6713C12.0056 24.4898 11.8584 24.3427 11.6769 24.3427C11.4954 24.3427 11.3483 24.4898 11.3483 24.6713Z" fill="#5CAAA6"/>
<path d="M8.63045 12.1855C8.33724 11.2758 7.64286 11.4864 7.57786 11.5083C7.50969 11.5163 6.79196 11.6229 6.91598 12.5706C7.0407 13.524 7.59381 14.0406 8.11254 13.8889C8.64641 13.8043 8.92543 13.1007 8.63045 12.1855Z" fill="#E18980"/>
<path d="M14.4856 12.1855C14.7788 11.2758 15.4732 11.4864 15.5382 11.5083C15.6064 11.5163 16.3241 11.6229 16.2001 12.5706C16.0754 13.524 15.5223 14.0406 15.0035 13.8889C14.4697 13.8043 14.1907 13.1007 14.4856 12.1855Z" fill="#E18980"/>
<path d="M7.91912 10.8073C8.2825 6.81902 11.3145 7.04242 11.6005 7.07246C11.8864 7.04242 14.9183 6.81902 15.2817 10.8073C15.6473 14.8193 13.8603 17.4396 11.6005 17.2954C9.34049 17.4396 7.55351 14.8193 7.91912 10.8073Z" fill="#FFAE9E"/>
<path d="M7.79312 11.5653C7.79312 11.5653 7.59752 16.8062 10.6874 17.3929C13.7771 17.9795 15.6935 15.3982 15.4198 11.2915L15.0287 11.2524C15.0287 11.2524 14.7745 15.3982 13.8358 15.4373C12.8971 15.4764 14.2855 14.1466 12.4865 14.0684C10.6874 13.9902 9.79694 13.3904 9.65086 14.9093C9.55312 15.9262 8.30152 14.1857 8.14512 11.487C7.98871 8.78835 7.79312 11.5653 7.79312 11.5653Z" fill="#AA534F"/>
<path d="M8.2934 12.6914C8.22241 12.3187 8.16997 11.915 8.14509 11.487C7.98869 8.7883 7.79309 11.5652 7.79309 11.5652C7.79309 11.5652 7.77197 12.1341 7.85399 12.9178C8.00089 12.8432 8.14709 12.7673 8.2934 12.6914Z" fill="#863F38"/>
<path d="M15.4233 12.7261C15.4535 12.2726 15.4532 11.7937 15.4198 11.2915L15.0286 11.2524C15.0286 11.2524 14.9936 11.8202 14.9023 12.5371C15.0763 12.5991 15.2501 12.662 15.4233 12.7261Z" fill="#863F38"/>
<path d="M12.1232 11.2749C12.1737 11.458 12.2126 11.6423 12.2476 11.827C12.2823 12.0118 12.3117 12.1972 12.3378 12.3829C12.3517 12.4756 12.3614 12.5689 12.3734 12.6618C12.3857 12.7549 12.3949 12.8481 12.4038 12.9414C12.4235 13.1279 12.4372 13.315 12.4482 13.5024L12.4512 13.5528L12.4148 13.5753C12.2954 13.6488 12.1742 13.7199 12.0519 13.7894C11.9286 13.8572 11.8057 13.9257 11.6774 13.9864C11.7802 13.8884 11.8883 13.7985 11.996 13.708C12.1049 13.6189 12.215 13.5315 12.3267 13.4467L12.2933 13.5195C12.263 13.3343 12.2355 13.1486 12.2139 12.9624C12.2022 12.8695 12.1908 12.7763 12.1825 12.6829C12.1738 12.5897 12.1629 12.4965 12.1561 12.403C12.1411 12.2161 12.1291 12.0288 12.1225 11.8408C12.1163 11.6529 12.1141 11.4645 12.1232 11.2749Z" fill="#E18980"/>
<path d="M14.4597 10.9793C14.4597 10.9793 14.4282 10.9618 14.3729 10.9312C14.346 10.9165 14.3134 10.8987 14.2761 10.8783C14.2395 10.8589 14.1981 10.837 14.153 10.8132C14.1064 10.7932 14.0599 10.7663 14.0078 10.7459C13.9825 10.7347 13.9566 10.7232 13.9301 10.7113C13.9033 10.7016 13.876 10.6917 13.8483 10.6815C13.7942 10.6577 13.7354 10.6489 13.6793 10.6291C13.6211 10.623 13.5641 10.6009 13.506 10.6031L13.4196 10.5961C13.3911 10.5995 13.3627 10.6004 13.3341 10.6021C13.2764 10.5996 13.2228 10.6211 13.1671 10.628C13.1114 10.6368 13.0617 10.6637 13.0095 10.6774L12.9709 10.6894L12.9358 10.7072C12.9119 10.7184 12.8889 10.729 12.8667 10.7395C12.8227 10.7613 12.7775 10.777 12.7435 10.8007C12.7085 10.8227 12.6752 10.8399 12.648 10.8549C12.5932 10.8846 12.5581 10.9001 12.5581 10.9001C12.5581 10.9001 12.572 10.8668 12.6029 10.8109C12.6185 10.7831 12.6373 10.7485 12.6621 10.711C12.6839 10.6705 12.7185 10.6336 12.7578 10.5936C12.7984 10.5555 12.8349 10.5027 12.8925 10.4694C12.9485 10.4351 13.0041 10.3887 13.0737 10.3628C13.1082 10.3489 13.1441 10.3364 13.1804 10.3235C13.2163 10.3083 13.2549 10.3017 13.2945 10.2971C13.3338 10.2917 13.3736 10.2856 13.4137 10.282C13.4536 10.2825 13.4938 10.2853 13.534 10.2875C13.6154 10.2892 13.6906 10.3161 13.7661 10.3346C13.8022 10.3476 13.8369 10.3633 13.8712 10.3783C13.9061 10.3923 13.9389 10.4086 13.9687 10.4285C13.9992 10.4473 14.0295 10.4649 14.0579 10.484C14.0844 10.505 14.1104 10.5257 14.1358 10.5456C14.187 10.5844 14.2259 10.6319 14.2647 10.6706C14.3378 10.7538 14.388 10.8304 14.4177 10.8874C14.4487 10.9438 14.4597 10.9793 14.4597 10.9793Z" fill="#352836"/>
<path d="M10.6829 10.9793C10.6829 10.9793 10.6513 10.9618 10.596 10.9312C10.5692 10.9165 10.5366 10.8987 10.4992 10.8783C10.4626 10.8589 10.4212 10.837 10.3762 10.8132C10.3296 10.7932 10.283 10.7663 10.2309 10.7459C10.2057 10.7347 10.1797 10.7232 10.1532 10.7113C10.1265 10.7016 10.0991 10.6917 10.0714 10.6815C10.0174 10.6577 9.95857 10.6489 9.90249 10.6291C9.84429 10.623 9.78726 10.6009 9.72918 10.6031L9.64271 10.5961C9.6142 10.5995 9.5858 10.6004 9.55729 10.6021C9.49956 10.5996 9.44594 10.6211 9.39021 10.628C9.33459 10.6368 9.28484 10.6637 9.23263 10.6774L9.19403 10.6894L9.15895 10.7072C9.13501 10.7184 9.11201 10.729 9.08984 10.7395C9.04584 10.7613 9.00066 10.777 8.96664 10.8007C8.93167 10.8227 8.89847 10.8399 8.87113 10.8549C8.81633 10.8846 8.78125 10.9001 8.78125 10.9001C8.78125 10.9001 8.7951 10.8668 8.82607 10.8109C8.84168 10.7831 8.86045 10.7485 8.88509 10.711C8.90703 10.6705 8.94164 10.6336 8.98095 10.5936C9.02155 10.5555 9.05804 10.5027 9.11565 10.4694C9.17162 10.4351 9.22723 10.3887 9.29681 10.3628C9.33131 10.3489 9.36721 10.3364 9.40359 10.3235C9.43949 10.3083 9.47809 10.3017 9.51763 10.2971C9.55694 10.2917 9.59672 10.2856 9.63684 10.282C9.67674 10.2825 9.71698 10.2853 9.75711 10.2875C9.83854 10.2892 9.91375 10.3161 9.9892 10.3346C10.0253 10.3476 10.0601 10.3633 10.0943 10.3783C10.1293 10.3923 10.162 10.4086 10.1918 10.4285C10.2223 10.4473 10.2526 10.4649 10.281 10.484C10.3075 10.505 10.3336 10.5257 10.3589 10.5456C10.4102 10.5844 10.449 10.6319 10.4879 10.6706C10.5608 10.7538 10.6112 10.8304 10.6409 10.8874C10.6718 10.9438 10.6829 10.9793 10.6829 10.9793Z" fill="#352836"/>
<path d="M10.5631 12.4246C10.5631 12.4246 10.5549 12.3922 10.5365 12.338C10.5181 12.2838 10.4894 12.2075 10.4447 12.124C10.3994 12.0411 10.3362 11.951 10.248 11.8853C10.2046 11.8521 10.1547 11.8257 10.1006 11.8093C10.074 11.7999 10.0467 11.7911 10.0173 11.7892C9.98854 11.7853 9.96003 11.7792 9.92987 11.7823C9.90195 11.7833 9.8664 11.7798 9.84469 11.7838C9.81418 11.7897 9.77593 11.7912 9.75235 11.8005C9.70471 11.816 9.65039 11.8341 9.60944 11.8683C9.56555 11.8983 9.53176 11.9395 9.50126 11.9803C9.4738 12.0236 9.45022 12.0677 9.43308 12.1115C9.39906 12.1989 9.38181 12.2787 9.37172 12.3349C9.36175 12.3912 9.35881 12.4246 9.35881 12.4246C9.35881 12.4246 9.3499 12.3924 9.34391 12.3339C9.3384 12.2757 9.33499 12.1905 9.35588 12.0886C9.36597 12.0377 9.38334 11.983 9.41079 11.9277C9.44059 11.8741 9.47662 11.816 9.53188 11.7723C9.58374 11.7251 9.64827 11.6905 9.72348 11.6682C9.76068 11.6554 9.78884 11.6551 9.82228 11.6478C9.86499 11.6403 9.89573 11.6441 9.93316 11.6422C9.96883 11.6401 10.005 11.6476 10.0409 11.6536C10.077 11.6574 10.1116 11.6689 10.1458 11.6817C10.1808 11.6915 10.2122 11.7098 10.2426 11.7284C10.2744 11.7447 10.3001 11.7687 10.3265 11.7905C10.4292 11.8817 10.4864 11.9955 10.5183 12.0923C10.551 12.19 10.5603 12.2744 10.5637 12.3328C10.5666 12.3914 10.5631 12.4246 10.5631 12.4246Z" fill="#352836"/>
<path d="M13.957 12.3698C13.957 12.3698 13.9488 12.3374 13.9304 12.2832C13.912 12.2291 13.8834 12.1527 13.8387 12.0692C13.7934 11.9864 13.7301 11.8963 13.6419 11.8305C13.5985 11.7973 13.5486 11.7709 13.4945 11.7545C13.4679 11.7451 13.4407 11.7363 13.4112 11.7345C13.3825 11.7306 13.3539 11.7245 13.3238 11.7275C13.2959 11.7286 13.2603 11.7251 13.2386 11.7291C13.2081 11.7349 13.1699 11.7364 13.1463 11.7457C13.0986 11.7612 13.0443 11.7794 13.0034 11.8135C12.9595 11.8436 12.9257 11.8848 12.8952 11.9256C12.8677 11.9689 12.8443 12.013 12.827 12.0568C12.793 12.1442 12.7757 12.224 12.7656 12.2802C12.7557 12.3365 12.7527 12.3698 12.7527 12.3698C12.7527 12.3698 12.7438 12.3377 12.7378 12.2792C12.7323 12.2209 12.7289 12.1357 12.7498 12.0339C12.7599 11.983 12.7773 11.9283 12.8047 11.873C12.8345 11.8194 12.8705 11.7612 12.9258 11.7176C12.9777 11.6704 13.0423 11.6358 13.1174 11.6135C13.1546 11.6007 13.1828 11.6003 13.2162 11.5931C13.2589 11.5856 13.2897 11.5893 13.3271 11.5874C13.3627 11.5853 13.3989 11.5928 13.4348 11.5988C13.4709 11.6027 13.5055 11.6142 13.5397 11.627C13.5748 11.6367 13.6061 11.655 13.6365 11.6737C13.6683 11.69 13.694 11.7139 13.7204 11.7356C13.8232 11.8269 13.8803 11.9407 13.9122 12.0375C13.945 12.1353 13.9542 12.2196 13.9576 12.2781C13.9606 12.3366 13.957 12.3698 13.957 12.3698Z" fill="#352836"/>
<path d="M13.1462 14.7028C12.4244 15.4045 11.2016 15.3656 10.2755 14.7403L13.1462 14.7028Z" fill="white"/>
<path d="M11.6546 7.65418C11.6546 7.65418 9.4643 7.26311 9.1123 8.63192C8.7603 10.0009 9.26883 11.8391 7.66523 11.5653C7.66523 11.5653 6.50246 11.7999 7.24553 13.6382C7.24553 13.6382 5.04482 11.5262 6.33549 10.0009C7.38832 8.75653 6.96123 6.05059 9.54257 5.62045C12.1239 5.19018 11.6546 7.14578 11.6546 7.65418Z" fill="#863F38"/>
<path d="M11.6546 7.65418C11.6546 7.65418 9.4643 7.26311 9.1123 8.63192C8.7603 10.0009 9.26883 11.8391 7.66523 11.5653C7.66523 11.5653 6.50246 11.7999 7.24553 13.6382C7.24553 13.6382 5.04482 11.5262 6.33549 10.0009C7.38832 8.75653 6.96123 6.05059 9.54257 5.62045C12.1239 5.19018 11.6546 7.14578 11.6546 7.65418Z" fill="#AA534F"/>
<path d="M11.455 7.65418C11.455 7.65418 13.6453 7.26311 13.9973 8.63192C14.3493 10.0009 13.8407 11.8391 15.4443 11.5653C15.4443 11.5653 16.6071 11.7999 15.8639 13.6382C15.8639 13.6382 18.0647 11.5262 16.7741 10.0009C15.7212 8.75653 16.1483 6.05059 13.567 5.62045C10.9857 5.19018 11.455 7.14578 11.455 7.65418Z" fill="#AA534F"/>
<path d="M11.4192 7.33103C11.5727 7.32751 11.7172 7.33396 11.8653 7.34499C12.0124 7.35626 12.1591 7.37433 12.3053 7.39908C12.5973 7.44848 12.8877 7.53026 13.1633 7.66121C13.436 7.79215 13.7025 7.98141 13.8744 8.25538C13.96 8.39067 14.0195 8.54238 14.0514 8.69702C14.0838 8.85202 14.0933 8.99423 14.1028 9.14242C14.1183 9.43552 14.11 9.72498 14.0977 10.0109C14.0868 10.2966 14.0723 10.5806 14.0915 10.858C14.1015 10.9963 14.1206 11.1332 14.16 11.2612C14.1993 11.389 14.2598 11.508 14.353 11.5981C14.4451 11.6888 14.5684 11.747 14.7009 11.7774C14.8336 11.8086 14.9744 11.8136 15.1145 11.8074L15.1196 11.8072L15.1213 11.8074C15.2109 11.8207 15.2935 11.8446 15.3754 11.8765C15.4564 11.9088 15.5344 11.9504 15.6029 12.005C15.671 12.0597 15.7295 12.1281 15.765 12.2075C15.8019 12.2864 15.8134 12.3739 15.8096 12.4585C15.8068 12.3738 15.7883 12.2891 15.747 12.2166C15.7071 12.1433 15.6469 12.0836 15.579 12.0374C15.5106 11.9912 15.4341 11.9578 15.3554 11.9333C15.2769 11.9094 15.1933 11.8932 15.1143 11.8872H15.1209C14.9764 11.9026 14.8283 11.9071 14.68 11.8822C14.5327 11.858 14.3827 11.8005 14.2632 11.6969C14.1432 11.5941 14.0601 11.4549 14.0094 11.3121C13.9577 11.1688 13.9306 11.0213 13.9128 10.8753C13.8786 10.5826 13.8799 10.2932 13.877 10.0073C13.8739 9.72146 13.8742 9.4381 13.8495 9.16037C13.8365 9.02368 13.8205 8.87983 13.7894 8.75569C13.7594 8.63155 13.7088 8.51457 13.6381 8.41026C13.4958 8.20129 13.2773 8.04582 13.0349 7.93553C12.7916 7.82418 12.524 7.75695 12.2526 7.71119C12.1167 7.68854 11.9792 7.672 11.8411 7.66191C11.704 7.65194 11.5623 7.64654 11.4299 7.65006L11.4192 7.33103Z" fill="#AA534F"/>
</g>
</g>
</g>
</g>
<defs>
<clipPath id="clip0_3302_4718">
<rect width="24" height="24" fill="white" transform="translate(0 0.5)"/>
</clipPath>
<clipPath id="clip1_3302_4718">
<rect width="24" height="24" fill="white" transform="translate(0 4.5)"/>
</clipPath>
<clipPath id="clip2_3302_4718">
<rect width="22" height="22" fill="white" transform="translate(0 4.5)"/>
</clipPath>
</defs>
</svg>
