<svg width="60" height="60" viewBox="0 0 60 60" fill="none" xmlns="http://www.w3.org/2000/svg">
<path d="M30 5.625C20.7056 5.625 13.125 13.2056 13.125 22.5C13.125 25.1367 14.1943 28.1616 15.6445 31.4648C17.0947 34.7681 18.9624 38.2764 20.8594 41.543C24.6533 48.0835 28.4766 53.5547 28.4766 53.5547L30 55.7812L31.5234 53.5547C31.5234 53.5547 35.3467 48.0835 39.1406 41.543C41.0376 38.2764 42.9053 34.7681 44.3555 31.4648C45.8057 28.1616 46.875 25.1367 46.875 22.5C46.875 13.2056 39.2944 5.625 30 5.625ZM30 9.375C37.2729 9.375 43.125 15.2271 43.125 22.5C43.125 24.0015 42.3193 26.8433 40.957 29.9414C39.5947 33.0396 37.7124 36.4746 35.8594 39.668C32.915 44.751 31.084 47.439 30 49.043C28.916 47.439 27.085 44.751 24.1406 39.668C22.2876 36.4746 20.4053 33.0396 19.043 29.9414C17.6807 26.8433 16.875 24.0015 16.875 22.5C16.875 15.2271 22.7271 9.375 30 9.375ZM30 18.75C27.9272 18.75 26.25 20.4272 26.25 22.5C26.25 24.5728 27.9272 26.25 30 26.25C32.0728 26.25 33.75 24.5728 33.75 22.5C33.75 20.4272 32.0728 18.75 30 18.75Z" fill="white"/>
</svg>
