<svg width="60" height="60" viewBox="0 0 60 60" fill="none" xmlns="http://www.w3.org/2000/svg">
<path d="M35.625 5.625C25.2905 5.625 16.875 14.0405 16.875 24.375C16.875 28.8647 18.4497 32.981 21.0938 36.2109L6.15234 51.1523L8.84766 53.8477L23.7891 38.9062C27.019 41.5503 31.1353 43.125 35.625 43.125C45.9595 43.125 54.375 34.7095 54.375 24.375C54.375 14.0405 45.9595 5.625 35.625 5.625ZM35.625 9.375C43.9307 9.375 50.625 16.0693 50.625 24.375C50.625 32.6807 43.9307 39.375 35.625 39.375C27.3193 39.375 20.625 32.6807 20.625 24.375C20.625 16.0693 27.3193 9.375 35.625 9.375Z" fill="white"/>
</svg>
