<svg width="18" height="18" viewBox="0 0 18 18" fill="none" xmlns="http://www.w3.org/2000/svg">
<g clip-path="url(#clip0_210_1662)">
<path d="M2.8125 5.34375H15.1875C15.3367 5.34375 15.4798 5.28449 15.5852 5.179C15.6907 5.07351 15.75 4.93043 15.75 4.78125C15.75 4.63207 15.6907 4.48899 15.5852 4.3835C15.4798 4.27801 15.3367 4.21875 15.1875 4.21875H2.8125C2.66332 4.21875 2.52024 4.27801 2.41475 4.3835C2.30926 4.48899 2.25 4.63207 2.25 4.78125C2.25 4.93043 2.30926 5.07351 2.41475 5.179C2.52024 5.28449 2.66332 5.34375 2.8125 5.34375Z" fill="#4D5A66"/>
<path d="M15.1875 7.03125H6.1875C6.03832 7.03125 5.89524 7.09051 5.78975 7.196C5.68426 7.30149 5.625 7.44457 5.625 7.59375C5.625 7.74293 5.68426 7.88601 5.78975 7.9915C5.89524 8.09699 6.03832 8.15625 6.1875 8.15625H15.1875C15.3367 8.15625 15.4798 8.09699 15.5852 7.9915C15.6907 7.88601 15.75 7.74293 15.75 7.59375C15.75 7.44457 15.6907 7.30149 15.5852 7.196C15.4798 7.09051 15.3367 7.03125 15.1875 7.03125Z" fill="#4D5A66"/>
<path d="M15.1876 9.84375H2.81299C2.6638 9.84375 2.52073 9.90301 2.41524 10.0085C2.30975 10.114 2.25049 10.2571 2.25049 10.4062C2.25049 10.5554 2.30975 10.6985 2.41524 10.804C2.52073 10.9095 2.6638 10.9688 2.81299 10.9688H15.1876C15.3368 10.9688 15.4798 10.9095 15.5853 10.804C15.6908 10.6985 15.7501 10.5554 15.7501 10.4062C15.7501 10.2571 15.6908 10.114 15.5853 10.0085C15.4798 9.90301 15.3368 9.84375 15.1876 9.84375Z" fill="#4D5A66"/>
<path d="M15.1876 12.6562H6.18799C6.0388 12.6562 5.89573 12.7155 5.79024 12.821C5.68475 12.9265 5.62549 13.0696 5.62549 13.2188C5.62549 13.3679 5.68475 13.511 5.79024 13.6165C5.89573 13.722 6.0388 13.7812 6.18799 13.7812H15.1876C15.3368 13.7812 15.4798 13.722 15.5853 13.6165C15.6908 13.511 15.7501 13.3679 15.7501 13.2188C15.7501 13.0696 15.6908 12.9265 15.5853 12.821C15.4798 12.7155 15.3368 12.6562 15.1876 12.6562Z" fill="#4D5A66"/>
</g>
<defs>
<clipPath id="clip0_210_1662">
<rect width="18" height="18" fill="white"/>
</clipPath>
</defs>
</svg>
